<?xml version="1.0" encoding="utf-8"?>
<!-- Generator: Adobe Illustrator 21.1.0, SVG Export Plug-In . SVG Version: 6.00 Build 0)  -->
<svg version="1.1" id="Layer_1" xmlns="http://www.w3.org/2000/svg" xmlns:xlink="http://www.w3.org/1999/xlink" x="0px" y="0px"
	 viewBox="0 0 40 40" style="enable-background:new 0 0 40 40;" xml:space="preserve">
<style type="text/css">
	.st0{fill:#C6C6C6;}
</style>
<g>
	<path class="st0" d="M19.8,0.9C9,0.9,0.2,9.7,0.2,20.5c0,8.6,5.6,16,13.4,18.6c1,0.2,1.4-0.4,1.4-1c0-0.5,0-2.1,0-3.6
		c-5.5,1.2-6.6-2.4-6.6-2.4c-0.9-2.3-2.2-2.8-2.2-2.8c-1.8-1.2,0.1-1.2,0.1-1.2c2,0.1,3,2.1,3,2.1c1.8,3,4.6,2.2,5.7,1.7
		c0.2-1.3,0.7-2.2,1.3-2.6c-4.3-0.5-8.9-2.2-8.9-9.7c0-2.2,0.8-3.9,2.1-5.3C9.3,13.7,8.6,11.8,9.7,9c0,0,1.7-0.5,5.4,2
		c1.6-0.4,3.2-0.7,4.9-0.7s3.3,0.2,4.9,0.7c3.7-2.5,5.4-2,5.4-2c1.1,2.7,0.4,4.7,0.2,5.2c1.3,1.4,2.1,3.1,2.1,5.3
		c0,7.5-4.6,9.2-8.9,9.7c0.7,0.6,1.4,1.8,1.4,3.6c0,2.6,0,4.7,0,5.4c0,0.5,0.4,1.2,1.4,1c7.7-2.5,13.4-9.9,13.4-18.6
		C39.4,9.7,30.6,0.9,19.8,0.9z"/>
	<path class="st0" d="M7.8,29c0,0.1-0.2,0.1-0.3,0.1c-0.2-0.1-0.3-0.2-0.2-0.3c0-0.1,0.2-0.1,0.3-0.1C7.8,28.8,7.8,28.9,7.8,29
		L7.8,29z"/>
	<path class="st0" d="M8.6,29.9c-0.1,0.1-0.3,0-0.4-0.1c-0.1-0.1-0.2-0.3-0.1-0.4s0.3,0,0.4,0.1C8.7,29.6,8.7,29.8,8.6,29.9
		L8.6,29.9z"/>
	<path class="st0" d="M9.4,31.1c-0.1,0.1-0.3,0-0.4-0.2c-0.1-0.2-0.1-0.4,0-0.5c0.1-0.1,0.3,0,0.4,0.2C9.5,30.8,9.5,31,9.4,31.1
		L9.4,31.1z"/>
	<path class="st0" d="M10.5,32.2c-0.1,0.1-0.3,0.1-0.5-0.1c-0.2-0.2-0.2-0.4-0.1-0.5c0.1-0.1,0.3-0.1,0.5,0.1
		C10.5,31.8,10.6,32.1,10.5,32.2L10.5,32.2z"/>
	<path class="st0" d="M11.9,32.7c0,0.2-0.3,0.2-0.5,0.2c-0.2-0.1-0.4-0.3-0.3-0.4c0-0.2,0.3-0.2,0.5-0.2
		C11.8,32.4,12,32.6,11.9,32.7L11.9,32.7z"/>
	<path class="st0" d="M13.5,32.8c0,0.2-0.2,0.3-0.4,0.3s-0.4-0.1-0.4-0.3s0.2-0.3,0.4-0.3S13.5,32.7,13.5,32.8L13.5,32.8z"/>
	<path class="st0" d="M15,32.6c0,0.2-0.1,0.3-0.4,0.4c-0.2,0-0.4-0.1-0.5-0.2c0-0.2,0.1-0.3,0.4-0.4C14.8,32.4,15,32.4,15,32.6
		L15,32.6z"/>
</g>
</svg>
