<?xml version="1.0" encoding="utf-8"?>
<!-- Generator: Adobe Illustrator 21.1.0, SVG Export Plug-In . SVG Version: 6.00 Build 0)  -->
<svg version="1.1" id="Layer_1" xmlns="http://www.w3.org/2000/svg" xmlns:xlink="http://www.w3.org/1999/xlink" x="0px" y="0px"
	 viewBox="0 0 282 283" style="enable-background:new 0 0 282 283;" xml:space="preserve">
<g>
	<g>
		<g>
			<path style="fill:#FFFFFF;" d="M275,11.7c-0.3-2.3-2.1-4.2-4.5-4.5c-21-2.6-42.6-0.3-62.6,6.5c-20,6.9-38.5,18.4-53.4,33.4
				l-34.1,34.1l-49.2,6.3c-1.1,0.1-2.2,0.7-3,1.5l-47.5,47.5c-1.3,1.3-1.8,3.3-1.3,5.1c0.6,1.8,2.1,3.2,4,3.5l35.9,6.6l7.1,7.1
				l-15,8.1c-1.4,0.8-2.4,2.2-2.6,3.8s0.3,3.2,1.4,4.4l56.9,56.9c1,1,2.3,1.5,3.6,1.5c0.2,0,0.5,0,0.7-0.1c1.6-0.2,3-1.2,3.8-2.6
				l8.1-15l7.1,7.1l6.6,35.9c0.3,1.9,1.7,3.4,3.5,4c0.5,0.2,1,0.2,1.5,0.2c1.3,0,2.6-0.5,3.6-1.5l47.5-47.5c0.8-0.8,1.3-1.8,1.5-3
				l6.4-49.2l34.1-34.1c14.9-14.9,26.5-33.4,33.4-53.4C275.3,54.3,277.5,32.7,275,11.7z M60.1,141.6l-25.2-4.7l39.4-39.4l34.3-4.4
				L60.1,141.6z M109.5,220l-47.2-47.2l11.7-6.3l41.9,41.9L109.5,220z M184.7,208l-39.4,39.4l-4.7-25.2l48.5-48.5L184.7,208z
				 M227.8,120.5l-92.7,92.7L69,147.1l92.7-92.7c13.5-13.5,30-23.9,48-30.4c2.3,11.9,8.2,23,16.8,31.7c8.7,8.7,19.7,14.5,31.7,16.8
				C251.8,90.5,241.3,107,227.8,120.5z M261.3,62.7c-10.4-1.8-20-6.7-27.5-14.2s-12.5-17.1-14.2-27.5c14.8-4,30.4-5.4,45.7-4
				C266.6,32.3,265.3,47.9,261.3,62.7z"/>
			<path style="fill:#FFFFFF;" d="M156.7,81.6c-12.1,12.1-12.1,31.8,0,43.9c6.1,6.1,14,9.1,22,9.1c7.9,0,15.9-3,22-9.1h0
				c12.1-12.1,12.1-31.8,0-43.9C188.5,69.5,168.8,69.5,156.7,81.6z M193.4,118.2c-8.1,8.1-21.3,8.1-29.4,0c-8.1-8.1-8.1-21.3,0-29.4
				c4.1-4.1,9.4-6.1,14.7-6.1c5.3,0,10.7,2,14.7,6.1C201.5,96.9,201.5,110.1,193.4,118.2z"/>
			<path style="fill:#3DEAD5;" d="M72.8,210.4c-2-2-5.2-2-7.2,0l-43.9,43.9c-2,2-2,5.2,0,7.2c1,1,2.3,1.5,3.6,1.5
				c1.3,0,2.6-0.5,3.6-1.5l43.9-43.9C74.8,215.6,74.8,212.3,72.8,210.4z"/>
			<path style="fill:#3DEAD5;" d="M79.6,224.3l-19.8,19.8c-2,2-2,5.2,0,7.2c1,1,2.3,1.5,3.6,1.5c1.3,0,2.6-0.5,3.6-1.5l19.8-19.8
				c2-2,2-5.2,0-7.2C84.8,222.3,81.6,222.3,79.6,224.3z"/>
			<path style="fill:#3DEAD5;" d="M52.9,253.2c-2.1,0-4.1,1.4-4.8,3.4c-0.7,2-0.1,4.4,1.6,5.7c1.7,1.4,4.3,1.5,6.1,0.2
				c1.9-1.4,2.7-4,1.8-6.2C56.8,254.4,54.9,253.2,52.9,253.2z"/>
			<path style="fill:#3DEAD5;" d="M57.6,256.3C57.7,256.6,57.5,256,57.6,256.3L57.6,256.3z"/>
			<path style="fill:#3DEAD5;" d="M38.4,265.5l-2.7,2.7c-2,2-2,5.2,0,7.2c1,1,2.3,1.5,3.6,1.5c1.3,0,2.6-0.5,3.6-1.5l2.7-2.7
				c2-2,2-5.2,0-7.2S40.4,263.5,38.4,265.5z"/>
			<path style="fill:#3DEAD5;" d="M34.7,220.5c-2-2-5.2-2-7.2,0L7.7,240.3c-2,2-2,5.2,0,7.2c1,1,2.3,1.5,3.6,1.5
				c1.3,0,2.6-0.5,3.6-1.5l19.8-19.8C36.7,225.7,36.7,222.5,34.7,220.5z"/>
			<path style="fill:#3DEAD5;" d="M42.9,218.5c2.1-0.5,3.6-2.3,3.9-4.5c0.2-2.1-0.9-4.1-2.8-5.1c-2-1-4.5-0.6-6,1
				c-1.6,1.7-1.9,4.4-0.6,6.4c0-0.1-0.1-0.1,0,0c0.1,0.1,0.1,0.1,0,0C38.6,218.2,40.8,219,42.9,218.5z"/>
			<path style="fill:#3DEAD5;" d="M56.1,206.3l2.7-2.7c2-2,2-5.2,0-7.2c-2-2-5.2-2-7.2,0l-2.7,2.7c-2,2-2,5.2,0,7.2
				c1,1,2.3,1.5,3.6,1.5C53.8,207.8,55.1,207.3,56.1,206.3z"/>
		</g>
	</g>
</g>
<g>
</g>
<g>
</g>
<g>
</g>
<g>
</g>
<g>
</g>
<g>
</g>
<g>
</g>
<g>
</g>
<g>
</g>
<g>
</g>
<g>
</g>
<g>
</g>
<g>
</g>
<g>
</g>
<g>
</g>
</svg>
