<?xml version="1.0" encoding="utf-8"?>
<!-- Generator: Adobe Illustrator 21.1.0, SVG Export Plug-In . SVG Version: 6.00 Build 0)  -->
<svg version="1.1" xmlns="http://www.w3.org/2000/svg" xmlns:xlink="http://www.w3.org/1999/xlink" x="0px" y="0px"
	 viewBox="0 0 53 53" style="enable-background:new 0 0 53 53;" xml:space="preserve">
<g id="Capa_1">
	<rect x="-2.7" y="-2.5" style="fill:#FFFFFF;" width="58.5" height="56.8"/>
	<g>
		<path style="fill:#AAAAAA;" d="M27,0C12.3-0.2,0.3,11.4,0,26c-0.1,8.3,3.6,15.8,9.4,20.7c0.4-0.3,0.8-0.6,1.3-0.9l7.9-4.3
			c1-0.6,1.7-1.7,1.7-2.8v-3.2c0,0-2.3-2.8-3.2-6.6c-0.7-0.5-1.2-1.3-1.2-2.2v-3.5c0-0.8,0.3-1.5,0.9-2V16c0,0-1.1-8,9.8-8
			s9.8,8,9.8,8v5.1c0.5,0.5,0.9,1.2,0.9,2v3.5c0,1.2-0.8,2.2-1.9,2.5c-0.6,1.9-1.5,3.7-2.6,5.3c-0.3,0.4-0.6,0.8-0.8,1v3.3
			c0,1.2,0.7,2.3,1.8,2.9l8.5,4.2c0.5,0.3,1,0.6,1.4,0.9C49.2,42.1,52.9,35,53,27C53.2,12.3,41.6,0.3,27,0z"/>
	</g>
</g>
<g id="Layer_2" style="display:none;">
	
		<image style="display:inline;overflow:visible;" width="84" height="88" xlink:href="avatar.png"  transform="matrix(0.6309 0 0 0.6309 0 0)">
	</image>
</g>
</svg>
